<?xml version="1.0" encoding="utf-8"?>
<!-- Generator: Adobe Illustrator 16.0.0, SVG Export Plug-In . SVG Version: 6.00 Build 0)  -->
<!DOCTYPE svg PUBLIC "-//W3C//DTD SVG 1.1//EN" "http://www.w3.org/Graphics/SVG/1.1/DTD/svg11.dtd">
<svg version="1.1" id="Layer_1" xmlns="http://www.w3.org/2000/svg" xmlns:xlink="http://www.w3.org/1999/xlink" x="0px" y="0px"
	 width="554.055px" height="83.754px" viewBox="0 0 554.055 83.754" enable-background="new 0 0 554.055 83.754"
	 xml:space="preserve">
<path fill="#FFFFFF" stroke="#FFFFFF" stroke-miterlimit="10" d="M42.148,42.755c2.452-0.024,2.771-2.923,1.278-4.378
	c-1.247-1.216-2.752-1.745-4.436-2.025c-9.572-1.59-5.147,15.676-1.508,19.147c4.308,4.111,10.666,7.355,15.454,2.068
	c3.125-3.45,2.014-8.446-3.073-8.229c-8.44,0.359-4.088,10.936-1.689,14.861c2.594,4.246,6.589,8.371,11.256,10.328
	c6.767,2.84,15.62-1.979,12.029-9.838c-1.953-4.275-8.807-7.158-10.23-1.119c-0.082,0.348,2.065,1.684,2.419,1.684h2.5
	c-0.339,0-1.56-1.686-2.352-1.686h-2.5c0.806,0.561,1.613,1.121,2.419,1.683c0.413-1.753,0.884-3.054,2.675-3.671
	c3.388-1.169,3.613,5.229,3.312,6.959c-0.752,4.318-6.437,5.156-9.88,4.91c-6.637-0.475-15.178-13.644-11.756-20.03
	c0.633-1.181,1.963-1.752,3.149-2.168c0.624-0.088,1.248-0.176,1.873-0.265c-0.913-1.143-1.111-1.035-0.595,0.322
	c0.072,0.746-0.308,1.563-0.567,2.233c-2.095,5.401-8.875,7.136-12.957,2.414c-3.224-3.729-3.982-9.285-2.801-13.934
	c0.654-2.579,2.572-3.926,5.174-3.985c2.397-0.054-0.161,3.017-1.546,3.031C40.129,41.066,41.361,42.763,42.148,42.755"/>
<path fill="#FFFFFF" stroke="#FFFFFF" stroke-miterlimit="10" d="M515.415,41.069c0.913,1.214,0.99,1.024,0.233-0.57
	c-0.185-0.835,0.31-1.421,0.847-1.944c3.337-3.252,5.032,1.956,5.349,4c0.783,5.073-1.436,10.205-5.052,13.655
	c-4.114,3.925-11.087,3.005-11.723-3.221c-0.225-2.201,2.253-2.045,3.697-1.734c1.774,0.383,1.57,3.551,1.449,4.847
	c-0.587,6.269-6.493,14.365-12.295,16.8c-4.498,1.887-10.19,0.58-10.256-4.883c-0.027-2.219,1.239-4.13,2.844-5.517
	c3.169-2.742,4.072,1.067,0.906,1.067c0.339,0,1.56,1.686,2.352,1.686h2.5c0.022-0.001,0.044-0.002,0.067-0.003
	c-1.252-5.314-7.022-7.185-10.252-2.179c-3.694,5.726,2.563,10.603,7.455,11.875c10.905,2.834,26.699-17.498,15.074-24.402
	c-1.685-1.001-5.023-2.352-5.967,0.137c-0.89,2.346,2.071,5.594,3.637,6.896c6.269,5.217,13.34,2.106,16.786-4.922
	c2.904-5.922,1.612-13.19-4.542-15.979c-2.807-1.272-6.466,0.349-4.841,3.623c0.599,1.205,2.83,2.441,4.082,2.453
	C517.421,42.752,516.211,41.077,515.415,41.069"/>
<path fill="#FFFFFF" stroke="#FFFFFF" stroke-miterlimit="10" d="M33.422,61.746c-2.652,1.721-4.343,5.424-1.97,8.061
	c1.153,1.279,3.79,2.664,5.529,2.09c1.927-0.639,2.7-3.235,2.494-5.033c-0.288-2.525-3.02-3.745-5.112-4.518
	c-0.475-0.174-0.528-0.08-0.095,0.19c0.594,0.372,1.243,0.7,1.901,0.943c-0.978-0.361-0.497-0.188-0.18,0.173
	c0.282,0.32,0.465,0.715,0.615,1.109c0.251,0.662,0.26,1.396,0.189,2.088c-0.135,1.322-0.842,2.623-1.914,3.406
	c-0.464,0.338-1.018,0.471-1.584,0.439c1.196,0.77,1.457,0.878,0.784,0.324c-0.209-0.207-0.393-0.436-0.552-0.684
	c-0.388-0.537-0.504-1.203-0.562-1.844c-0.198-2.163,1.432-4.302,3.145-5.413C35.866,63.237,33.992,61.375,33.422,61.746"/>
<path fill="#FFFFFF" stroke="#FFFFFF" stroke-miterlimit="10" d="M517.669,61.746c-2.651,1.721-4.343,5.424-1.97,8.061
	c1.153,1.279,3.79,2.664,5.529,2.09c1.927-0.639,2.7-3.235,2.494-5.033c-0.288-2.525-3.021-3.745-5.112-4.518
	c-0.476-0.174-0.528-0.08-0.095,0.19c0.594,0.372,1.242,0.7,1.9,0.943c-0.978-0.361-0.497-0.188-0.18,0.173
	c0.282,0.32,0.465,0.715,0.615,1.109c0.251,0.662,0.26,1.396,0.188,2.088c-0.135,1.322-0.842,2.623-1.914,3.406
	c-0.464,0.338-1.018,0.471-1.584,0.439c1.196,0.77,1.457,0.878,0.784,0.324c-0.209-0.207-0.393-0.436-0.552-0.684
	c-0.388-0.537-0.504-1.203-0.562-1.844c-0.197-2.163,1.433-4.302,3.146-5.413C520.113,63.237,518.239,61.375,517.669,61.746"/>
<path fill="#FFFFFF" stroke="#FFFFFF" stroke-miterlimit="10" d="M17.15,1.178C7.703,7.612-6.576,27.701,6.492,37.269
	c2.757,2.019,6.462,4.144,10,3.482c2.805-0.524,6.487-3.65,2.588-6.13c-1.503-0.956-5.231,0.285-6.555,1.12
	c-6.255,3.94-4.271,9.959-1.465,15.594c3.185,6.398,4.891,11.781,4.229,18.947c-0.247,2.664-0.944,5.258-2.075,7.68
	c-2.066,4.425-5.863,5.156-10.236,3.605c-0.762-0.27-2.467,0.811-2.811,0.688c6.017,2.134,12.738,1.005,15.98-4.927
	c2.237-4.094,2.429-9.325,2.196-13.866c-0.346-6.756-4.558-12.074-6.753-18.263c-0.957-2.699-0.576-5.109,0.94-7.471
	c1.634-2.547,4.433-3.545,5.076-0.002c0.992,5.461-7.459-0.485-9.425-2.034C3.233,31.797,4.203,23.685,5.956,18.5
	c2.406-7.114,7.907-13.678,14.039-17.854C19.611,0.907,17.858,0.696,17.15,1.178"/>
<path fill="#FFFFFF" stroke="#FFFFFF" stroke-miterlimit="10" d="M533.772,1.229c5.602,3.814,9.882,9.179,12.919,15.201
	c2.754,5.459,4.48,14.612-0.527,19.427c-2.119,2.037-8.577,6.874-9.887,2.168c-1.011-3.631,1.926-2.517,3.659-1.14
	c1.948,1.548,2.822,3.938,2.836,6.344c0.035,6.171-5.681,12.003-7,18c-0.985,4.48-0.428,9.705,0.823,14.062
	c2.425,8.444,9.558,9.036,16.702,6.503c1.116-0.396-1.748,0.109-2.118,0.24c-7.474,2.65-11.17-4.32-12.363-10.325
	c-1.257-6.321-0.272-12.422,2.499-18.171c2.878-5.971,7.312-12.71,0.798-17.884c-1.84-1.462-5.269-1.765-7.339-0.449
	c-3.574,2.273-0.707,5.942,2.628,5.603c3.304-0.336,6.392-1.862,9.146-3.621c14.251-9.105-0.251-30.057-9.842-36.59
	C536.027,0.134,534.18,1.505,533.772,1.229"/>
</svg>
