<?xml version="1.0" encoding="utf-8"?>
<!-- Generator: Adobe Illustrator 16.0.0, SVG Export Plug-In . SVG Version: 6.00 Build 0)  -->
<!DOCTYPE svg PUBLIC "-//W3C//DTD SVG 1.1//EN" "http://www.w3.org/Graphics/SVG/1.1/DTD/svg11.dtd">
<svg version="1.1" id="Layer_1" xmlns="http://www.w3.org/2000/svg" xmlns:xlink="http://www.w3.org/1999/xlink" x="0px" y="0px"
	 width="116.562px" height="15.284px" viewBox="0 0 116.562 15.284" enable-background="new 0 0 116.562 15.284"
	 xml:space="preserve">
<g>
	<path fill="#FFFFFF" d="M8.812,0.117c0.302,0,0.555,0.064,0.756,0.192s0.338,0.343,0.408,0.646C9.75,1.056,9.564,1.139,9.417,1.205
		S9.122,1.347,8.975,1.432c0.008-0.047,0.012-0.121,0.012-0.221c0-0.225-0.037-0.412-0.11-0.559
		C8.802,0.505,8.665,0.438,8.462,0.454c-0.256,0-0.473,0.041-0.652,0.122c-0.178,0.082-0.308,0.252-0.39,0.512
		S7.299,1.632,7.299,1.943c0,0.682,0.229,1.366,0.687,2.052s0.811,1.213,1.059,1.581c0.249,0.369,0.419,0.715,0.512,1.041
		c0.093,0.326,0.14,0.647,0.14,0.965c0,0.721-0.209,1.432-0.628,2.134s-0.987,1.223-1.705,1.563
		c-0.718,0.342-1.531,0.512-2.439,0.512c-0.52,0-1.09-0.062-1.711-0.186c-0.621-0.124-1.178-0.331-1.67-0.621
		c-0.493-0.291-0.873-0.693-1.141-1.209S0,8.77,0,8.306c0-0.65,0.206-1.222,0.617-1.714C1.028,6.1,1.449,5.75,1.88,5.541
		c0.431-0.209,0.891-0.314,1.379-0.314c0.427,0,0.871,0.089,1.333,0.268C5.054,5.673,5.38,5.878,5.57,6.111
		c0.19,0.233,0.348,0.598,0.472,1.094c0.016,0.093,0.023,0.159,0.023,0.198c0,0.109-0.031,0.206-0.093,0.291
		c-0.085-0.117-0.169-0.353-0.25-0.708C5.64,6.632,5.504,6.347,5.314,6.132C5.124,5.918,4.881,5.75,4.586,5.629
		C4.292,5.508,3.973,5.448,3.632,5.448c-0.271,0-0.646,0.051-1.123,0.151C2.031,5.7,1.612,5.89,1.251,6.169S0.625,6.821,0.454,7.287
		c-0.171,0.465-0.256,0.869-0.256,1.21c0,0.303,0.052,0.584,0.157,0.844c0.105,0.261,0.322,0.565,0.652,0.914
		c0.33,0.349,0.765,0.649,1.304,0.901c0.54,0.253,1.112,0.379,1.717,0.379c0.178,0,0.359-0.012,0.541-0.035
		c0.183-0.023,0.473-0.089,0.873-0.197s0.805-0.312,1.216-0.61c0.412-0.299,0.724-0.665,0.937-1.099
		c0.213-0.435,0.32-0.857,0.32-1.268c0-0.52-0.161-1.105-0.483-1.756C7.11,5.919,6.788,5.268,6.466,4.617
		C6.144,3.966,5.983,3.411,5.983,2.954c0-0.481,0.14-0.929,0.419-1.343S7.031,0.867,7.45,0.623c0.419-0.244,0.693-0.39,0.821-0.436
		c0.128-0.047,0.262-0.07,0.402-0.07H8.812z M6.647,1.723c-0.156,0.38-0.233,0.768-0.233,1.164c0,0.497,0.14,1.042,0.419,1.635
		s0.559,1.166,0.838,1.717c0.295,0.675,0.442,1.285,0.442,1.828c0,0.147-0.012,0.299-0.035,0.454
		C8.031,9.01,7.873,9.463,7.604,9.883c-0.27,0.418-0.623,0.799-1.06,1.141c0.241,0,0.534-0.145,0.877-0.432
		c0.21-0.201,0.362-0.341,0.456-0.418c0.281-0.342,0.481-0.684,0.602-1.025C8.6,8.808,8.661,8.459,8.661,8.102
		c0-0.582-0.167-1.228-0.5-1.938c-0.334-0.71-0.669-1.43-1.007-2.159C6.815,3.275,6.647,2.619,6.647,2.037
		C6.647,1.897,6.647,1.793,6.647,1.723z"/>
	<path fill="#FFFFFF" d="M11.279,7.881c0.333-0.225,0.694-0.338,1.083-0.338c0.24,0,0.456,0.046,0.646,0.137
		c0.19,0.091,0.355,0.236,0.495,0.434c0.085-0.031,0.138-0.095,0.157-0.19s0.025-0.175,0.018-0.238
		c0.14-0.048,0.295-0.072,0.465-0.072c0.093,0,0.233,0.008,0.419,0.023c0.186,0.016,0.322,0.023,0.407,0.023
		c-0.062,0.232-0.215,0.696-0.46,1.391c-0.244,0.694-0.367,1.337-0.367,1.927c0,0.14,0.085,0.209,0.256,0.209
		c0.062,0,0.13-0.012,0.204-0.035c0.074-0.022,0.149-0.07,0.227-0.145s0.149-0.165,0.215-0.273c0.066-0.109,0.114-0.194,0.146-0.256
		c0,0.203-0.054,0.383-0.163,0.539c-0.109,0.157-0.291,0.32-0.547,0.488c-0.256,0.168-0.524,0.252-0.803,0.252
		c-0.171,0-0.332-0.029-0.483-0.088c-0.151-0.059-0.256-0.162-0.314-0.307c-0.058-0.146-0.115-0.289-0.169-0.432
		c-0.217,0.24-0.456,0.438-0.716,0.594c-0.26,0.155-0.53,0.232-0.809,0.232c-0.163,0-0.375-0.044-0.634-0.133
		c-0.26-0.09-0.433-0.303-0.518-0.641s-0.128-0.619-0.128-0.844c0-0.45,0.12-0.867,0.361-1.252
		C10.507,8.503,10.845,8.168,11.279,7.881z M11.896,7.776c-0.232,0.078-0.438,0.175-0.617,0.291
		c-0.179,0.116-0.363,0.289-0.553,0.518c-0.19,0.229-0.338,0.478-0.442,0.746c-0.105,0.268-0.157,0.545-0.157,0.832
		c0,0.356,0.082,0.697,0.244,1.023c0.062,0.008,0.165,0.059,0.309,0.152c0.144,0.093,0.243,0.139,0.297,0.139
		s0.105-0.027,0.151-0.081c-0.194-0.108-0.324-0.202-0.39-0.283s-0.112-0.187-0.14-0.318c-0.027-0.131-0.041-0.293-0.041-0.485
		c0-0.502,0.12-0.974,0.361-1.417C11.159,8.449,11.485,8.077,11.896,7.776z M12.606,7.974c-0.419,0.233-0.732,0.547-0.937,0.943
		c-0.206,0.396-0.309,0.846-0.309,1.351c0,0.171,0.01,0.329,0.029,0.478c0.02,0.146,0.078,0.27,0.175,0.366s0.204,0.146,0.32,0.146
		c0.062,0,0.223-0.078,0.483-0.232c0.26-0.156,0.481-0.476,0.664-0.961c0.182-0.484,0.273-1.08,0.273-1.787
		c0-0.085-0.052-0.165-0.157-0.239c-0.104-0.073-0.219-0.11-0.343-0.11C12.727,7.927,12.661,7.943,12.606,7.974z M13.957,7.799
		c-0.279,0.57-0.495,1.123-0.646,1.66c-0.151,0.535-0.227,1.115-0.227,1.74c0,0.131,0.105,0.196,0.314,0.196
		c0.046,0,0.124,0,0.232,0c-0.046-0.038-0.093-0.077-0.14-0.116c-0.046-0.039-0.074-0.09-0.082-0.151S13.398,11,13.398,10.93
		s0-0.124,0-0.162c0-0.521,0.122-1.097,0.367-1.729c0.244-0.633,0.394-1.046,0.448-1.24H13.957z"/>
	<path fill="#FFFFFF" d="M17.041,3.55c0.202,0,0.495-0.062,0.879-0.187c0.384-0.125,0.653-0.195,0.809-0.211
		c-0.163,0.405-0.332,0.924-0.506,1.555c-0.175,0.631-0.34,1.228-0.495,1.789c0.031,0.008,0.072,0.016,0.123,0.023
		c0.05,0.008,0.122,0.012,0.215,0.012c0.093,0,0.2,0,0.32,0s0.223,0,0.309,0v0.185c-0.062,0.008-0.153,0.016-0.273,0.024
		c-0.121,0.008-0.223,0.012-0.309,0.012h-0.466c-0.078,0.279-0.256,0.836-0.535,1.671c-0.279,0.834-0.419,1.53-0.419,2.089
		c0,0.062,0,0.124,0,0.187c0.015,0.093,0.029,0.186,0.041,0.279c0.012,0.093,0.099,0.14,0.262,0.14c0.109,0,0.227-0.023,0.355-0.071
		c0.128-0.047,0.268-0.107,0.419-0.183c0.151-0.074,0.275-0.169,0.373-0.283c0.097-0.114,0.184-0.222,0.262-0.324
		c-0.093,0.352-0.312,0.661-0.658,0.927s-0.675,0.439-0.989,0.521c-0.314,0.082-0.545,0.123-0.693,0.123
		c-0.326,0-0.592-0.114-0.797-0.344c-0.206-0.229-0.308-0.498-0.308-0.809c0-0.232,0.062-0.541,0.186-0.926
		c0.124-0.384,0.248-0.758,0.373-1.123c0.108-0.403,0.2-0.731,0.273-0.983s0.157-0.526,0.25-0.821
		c-0.132,0.008-0.272,0.012-0.419,0.012c-0.124,0-0.234,0-0.332,0s-0.18,0-0.25,0c0.023-0.062,0.041-0.113,0.053-0.153
		c0.012-0.04,0.006-0.074-0.018-0.103c0.116,0,0.231,0.005,0.343,0.017s0.223,0.018,0.332,0.018c0.062,0,0.128,0,0.198,0
		c0.093-0.016,0.159-0.027,0.198-0.035c0.07-0.195,0.202-0.643,0.396-1.343C16.734,4.534,16.901,3.973,17.041,3.55z M16.331,6.833
		c-0.303,0.844-0.514,1.44-0.635,1.789c-0.12,0.348-0.223,0.685-0.308,1.01c-0.085,0.325-0.14,0.558-0.163,0.697
		c-0.023,0.139-0.035,0.252-0.035,0.336c0,0.201,0.037,0.376,0.111,0.523c0.074,0.146,0.18,0.253,0.32,0.318
		c0.14,0.066,0.272,0.1,0.396,0.1c0.101,0,0.192-0.01,0.273-0.029s0.219-0.072,0.413-0.158c-0.163-0.023-0.316-0.059-0.459-0.104
		c-0.144-0.047-0.281-0.118-0.413-0.216c-0.132-0.098-0.198-0.274-0.198-0.531c0-0.412,0.177-1.104,0.53-2.076
		c0.353-0.973,0.549-1.529,0.588-1.669L16.331,6.833z M17.611,3.69l-0.5,0.105l-0.71,2.747c0.062,0.046,0.104,0.07,0.128,0.07
		c0.078-0.031,0.155-0.062,0.233-0.093c0.147-0.396,0.277-0.788,0.39-1.175C17.264,4.955,17.417,4.404,17.611,3.69z"/>
	<path fill="#FFFFFF" d="M22,7.52h1.176c-0.039,0.358-0.185,1.014-0.437,1.967c-0.252,0.954-0.386,1.474-0.402,1.559
		c-0.039,0.164,0.039,0.246,0.233,0.246c0.101,0,0.208-0.035,0.32-0.105c0.112-0.069,0.206-0.146,0.279-0.232
		s0.142-0.182,0.204-0.291h0.082c-0.155,0.291-0.365,0.535-0.628,0.735c-0.264,0.2-0.497,0.31-0.699,0.329s-0.357,0.029-0.465,0.029
		c-0.187,0-0.342-0.035-0.466-0.105c-0.124-0.069-0.186-0.191-0.186-0.362v-0.152c0-0.195,0.029-0.409,0.087-0.644
		c0.059-0.234,0.126-0.465,0.204-0.691L20.894,10.5c-0.256,0.396-0.526,0.704-0.809,0.926s-0.623,0.331-1.018,0.331
		c-0.163,0-0.314-0.032-0.454-0.099s-0.229-0.155-0.268-0.269c-0.039-0.113-0.058-0.228-0.058-0.344c0-0.109,0.02-0.24,0.058-0.392
		c0.039-0.151,0.132-0.482,0.28-0.992c0.147-0.509,0.361-1.235,0.64-2.177h1.176c-0.14,0.582-0.266,1.092-0.378,1.531
		c-0.113,0.438-0.209,0.811-0.291,1.117s-0.132,0.506-0.151,0.6c-0.02,0.093-0.029,0.158-0.029,0.197
		c0,0.055,0.025,0.117,0.076,0.187s0.126,0.104,0.227,0.104c0.054,0,0.217-0.096,0.489-0.286s0.57-0.667,0.896-1.431
		C21.604,8.586,21.844,7.925,22,7.52z M19.337,7.706c-0.139,0.389-0.283,0.828-0.433,1.314s-0.258,0.875-0.323,1.167
		c-0.066,0.292-0.106,0.481-0.121,0.566c-0.016,0.085-0.023,0.175-0.023,0.269c0,0.117,0.019,0.214,0.058,0.291
		c0.038,0.078,0.115,0.148,0.23,0.211c0.115,0.062,0.223,0.094,0.322,0.094c0.123,0,0.257-0.039,0.403-0.117
		c-0.186,0-0.337-0.043-0.454-0.128c-0.116-0.086-0.174-0.206-0.174-0.362c0-0.031,0.037-0.202,0.11-0.514s0.2-0.771,0.378-1.378
		c0.179-0.606,0.318-1.089,0.419-1.448h-0.173C19.441,7.671,19.368,7.683,19.337,7.706z M22.081,7.636
		c-0.334,0.924-0.578,1.679-0.733,2.267c-0.155,0.587-0.233,1.01-0.233,1.268c0,0.149,0.058,0.261,0.175,0.336
		c0.116,0.074,0.26,0.111,0.431,0.111c0.108,0,0.209-0.027,0.303-0.082c-0.132-0.016-0.233-0.08-0.303-0.192
		s-0.097-0.239-0.082-0.38c0-0.475,0.099-1.014,0.297-1.617c0.198-0.603,0.39-1.177,0.576-1.722c-0.101,0-0.188,0-0.262,0
		C22.176,7.625,22.12,7.628,22.081,7.636z"/>
	<path fill="#FFFFFF" d="M26.062,8.124c0.256-0.241,0.47-0.417,0.641-0.53c0.17-0.113,0.407-0.192,0.71-0.239
		c0,0.194-0.049,0.464-0.146,0.809c-0.097,0.345-0.149,0.541-0.157,0.587h-0.175c-0.349,0-0.658,0.096-0.925,0.285
		c-0.268,0.191-0.514,0.457-0.739,0.799c-0.147,0.248-0.285,0.552-0.413,0.908c-0.128,0.357-0.25,0.699-0.367,1.025h-1.246
		c0.155-0.705,0.335-1.43,0.542-2.17c0.206-0.742,0.421-1.43,0.646-2.067c0.108-0.015,0.209-0.023,0.303-0.023
		c0.116,0,0.26,0.006,0.431,0.017c0.17,0.012,0.361,0.021,0.57,0.029c-0.101,0.347-0.187,0.644-0.256,0.889
		c-0.07,0.247-0.104,0.467-0.104,0.659C25.6,8.776,25.829,8.45,26.062,8.124z M24.595,7.752c-0.187,0.52-0.375,1.121-0.565,1.805
		c-0.19,0.683-0.351,1.322-0.483,1.92h0.326c0.132-0.465,0.31-1.1,0.535-1.902c0.225-0.804,0.388-1.411,0.489-1.822H24.595z
		 M26.702,7.752c-0.187,0.147-0.367,0.312-0.542,0.495c-0.175,0.183-0.328,0.398-0.46,0.646c0.101-0.039,0.289-0.15,0.565-0.338
		c0.275-0.186,0.42-0.283,0.437-0.291V7.752z"/>
	<path fill="#FFFFFF" d="M32.231,3.225c0.046,0,0.116,0,0.209,0c0.093,0,0.268-0.016,0.523-0.048
		c0.256-0.032,0.423-0.048,0.501-0.048c-0.101,0.73-0.268,1.537-0.501,2.422c-0.232,0.885-0.471,1.777-0.716,2.678
		c-0.244,0.901-0.405,1.549-0.483,1.945s-0.116,0.613-0.116,0.651c0,0.164,0.042,0.276,0.128,0.338
		c0.085,0.062,0.159,0.094,0.221,0.094c0.132,0,0.287-0.086,0.465-0.256c0.179-0.171,0.345-0.334,0.5-0.489
		c-0.108,0.267-0.289,0.481-0.541,0.646c-0.252,0.165-0.6,0.341-1.042,0.528c-0.132,0.047-0.26,0.07-0.384,0.07
		c-0.295,0-0.487-0.074-0.576-0.224c-0.089-0.149-0.142-0.279-0.157-0.39c-0.016-0.109-0.031-0.196-0.047-0.26
		c-0.132,0.164-0.266,0.299-0.401,0.408c-0.136,0.108-0.32,0.201-0.553,0.279c-0.233,0.078-0.394,0.128-0.483,0.15
		c-0.089,0.023-0.196,0.035-0.32,0.035c-0.07,0-0.142-0.006-0.215-0.018c-0.074-0.012-0.19-0.056-0.35-0.133
		c-0.159-0.078-0.301-0.188-0.425-0.332s-0.211-0.318-0.262-0.523c-0.05-0.206-0.076-0.414-0.076-0.623
		c0-0.435,0.101-0.854,0.303-1.258c0.202-0.402,0.502-0.771,0.902-1.105c0.4-0.333,0.813-0.5,1.24-0.5
		c0.303,0,0.547,0.063,0.733,0.189c0.187,0.126,0.305,0.219,0.355,0.278s0.134,0.167,0.25,0.325
		c0.124-0.365,0.271-0.865,0.442-1.501c0.17-0.636,0.337-1.272,0.5-1.909C32.021,4.008,32.145,3.535,32.231,3.225z M27.947,8.48
		c-0.187,0.304-0.328,0.599-0.425,0.884c-0.097,0.285-0.146,0.576-0.146,0.872c0,0.164,0.021,0.367,0.064,0.608
		c0.042,0.242,0.182,0.424,0.419,0.545s0.467,0.182,0.692,0.182c-0.202-0.062-0.369-0.16-0.5-0.293s-0.211-0.291-0.238-0.475
		c-0.027-0.183-0.041-0.353-0.041-0.509c0-0.554,0.128-1.067,0.384-1.54c0.256-0.472,0.613-0.887,1.071-1.246
		c-0.295,0.102-0.541,0.223-0.739,0.363C28.291,8.012,28.11,8.214,27.947,8.48z M29.606,7.974c-0.224,0.318-0.454,0.669-0.689,1.054
		c-0.236,0.383-0.354,0.781-0.354,1.192c0,0.179,0.025,0.342,0.075,0.489c0.05,0.147,0.133,0.299,0.249,0.453
		c0.085,0.094,0.186,0.141,0.301,0.141c0.108,0,0.222-0.033,0.342-0.1c0.12-0.064,0.26-0.204,0.422-0.416
		c0.162-0.213,0.314-0.517,0.458-0.91c0.143-0.395,0.284-0.92,0.423-1.578c-0.046-0.135-0.154-0.249-0.324-0.34
		C30.34,7.868,30.17,7.822,30,7.822C29.814,7.822,29.684,7.873,29.606,7.974z M32.289,3.527c-0.466,1.865-0.731,2.93-0.797,3.194
		c-0.066,0.265-0.206,0.742-0.419,1.434c-0.214,0.691-0.375,1.21-0.483,1.556s-0.163,0.658-0.163,0.938
		c0,0.233,0.027,0.421,0.082,0.565c0.054,0.144,0.124,0.238,0.209,0.285s0.175,0.07,0.268,0.07c0.116,0,0.229-0.035,0.337-0.105
		c-0.14-0.046-0.256-0.136-0.349-0.268s-0.14-0.275-0.14-0.432c0-0.039,0.06-0.287,0.18-0.746c0.121-0.458,0.291-1.109,0.512-1.952
		c0.221-0.843,0.423-1.651,0.605-2.425c0.182-0.773,0.335-1.521,0.46-2.244c-0.047-0.023-0.086-0.035-0.117-0.035
		C32.366,3.364,32.304,3.418,32.289,3.527z"/>
	<path fill="#FFFFFF" d="M35.501,7.881c0.333-0.225,0.694-0.338,1.083-0.338c0.24,0,0.456,0.046,0.646,0.137
		c0.19,0.091,0.355,0.236,0.495,0.434c0.085-0.031,0.138-0.095,0.157-0.19s0.025-0.175,0.018-0.238
		c0.14-0.048,0.295-0.072,0.465-0.072c0.093,0,0.233,0.008,0.419,0.023c0.186,0.016,0.322,0.023,0.407,0.023
		c-0.062,0.232-0.215,0.696-0.46,1.391c-0.244,0.694-0.367,1.337-0.367,1.927c0,0.14,0.085,0.209,0.256,0.209
		c0.062,0,0.13-0.012,0.204-0.035c0.074-0.022,0.149-0.07,0.227-0.145s0.149-0.165,0.215-0.273c0.066-0.109,0.114-0.194,0.146-0.256
		c0,0.203-0.054,0.383-0.163,0.539c-0.109,0.157-0.291,0.32-0.547,0.488c-0.256,0.168-0.524,0.252-0.803,0.252
		c-0.171,0-0.332-0.029-0.483-0.088c-0.151-0.059-0.256-0.162-0.314-0.307c-0.058-0.146-0.115-0.289-0.169-0.432
		c-0.217,0.24-0.456,0.438-0.716,0.594c-0.26,0.155-0.53,0.232-0.809,0.232c-0.163,0-0.375-0.044-0.634-0.133
		c-0.26-0.09-0.433-0.303-0.518-0.641s-0.128-0.619-0.128-0.844c0-0.45,0.12-0.867,0.361-1.252
		C34.729,8.503,35.067,8.168,35.501,7.881z M36.118,7.776c-0.232,0.078-0.438,0.175-0.617,0.291
		c-0.179,0.116-0.363,0.289-0.553,0.518c-0.19,0.229-0.338,0.478-0.442,0.746c-0.105,0.268-0.157,0.545-0.157,0.832
		c0,0.356,0.082,0.697,0.244,1.023c0.062,0.008,0.165,0.059,0.309,0.152c0.144,0.093,0.243,0.139,0.297,0.139
		s0.105-0.027,0.151-0.081c-0.194-0.108-0.324-0.202-0.39-0.283s-0.112-0.187-0.14-0.318c-0.027-0.131-0.041-0.293-0.041-0.485
		c0-0.502,0.12-0.974,0.361-1.417C35.381,8.449,35.707,8.077,36.118,7.776z M36.829,7.974c-0.419,0.233-0.732,0.547-0.937,0.943
		c-0.206,0.396-0.309,0.846-0.309,1.351c0,0.171,0.01,0.329,0.029,0.478c0.02,0.146,0.078,0.27,0.175,0.366s0.204,0.146,0.32,0.146
		c0.062,0,0.223-0.078,0.483-0.232c0.26-0.156,0.481-0.476,0.664-0.961c0.182-0.484,0.273-1.08,0.273-1.787
		c0-0.085-0.052-0.165-0.157-0.239c-0.104-0.073-0.219-0.11-0.343-0.11C36.949,7.927,36.883,7.943,36.829,7.974z M38.179,7.799
		c-0.279,0.57-0.495,1.123-0.646,1.66c-0.151,0.535-0.227,1.115-0.227,1.74c0,0.131,0.105,0.196,0.314,0.196
		c0.046,0,0.124,0,0.232,0c-0.046-0.038-0.093-0.077-0.14-0.116c-0.046-0.039-0.074-0.09-0.082-0.151S37.62,11,37.62,10.93
		s0-0.124,0-0.162c0-0.521,0.122-1.097,0.367-1.729c0.244-0.633,0.394-1.046,0.448-1.24H38.179z"/>
	<path fill="#FFFFFF" d="M44.627,7.45c-0.163,0.498-0.351,1.184-0.564,2.058s-0.405,1.586-0.576,2.134s-0.415,1.137-0.733,1.766
		c-0.318,0.63-0.7,1.065-1.146,1.307c-0.446,0.24-0.999,0.361-1.659,0.361c-0.272,0-0.495-0.033-0.669-0.1
		c-0.174-0.066-0.285-0.172-0.332-0.32c-0.047-0.146-0.07-0.271-0.07-0.372c0-0.474,0.301-0.865,0.902-1.176
		c0.602-0.31,1.088-0.555,1.461-0.733l0.058,0.059c-0.435,0.209-0.825,0.471-1.169,0.785c-0.346,0.314-0.542,0.592-0.588,0.832
		c-0.047,0.241-0.07,0.373-0.07,0.396c0,0.163,0.058,0.291,0.174,0.385c0.117,0.092,0.249,0.131,0.396,0.115
		c0.512-0.077,0.876-0.349,1.094-0.814c0.217-0.465,0.481-1.203,0.792-2.211l0.442-1.479l-0.151-0.129
		c-0.45,0.59-0.833,0.977-1.147,1.158c-0.314,0.184-0.646,0.273-0.995,0.273c-0.225,0-0.425-0.032-0.599-0.099
		c-0.175-0.065-0.262-0.181-0.262-0.345c0-0.606,0.136-1.316,0.407-2.13c0.272-0.813,0.438-1.363,0.501-1.651
		c0.039-0.008,0.163-0.012,0.372-0.012c0.21,0,0.376-0.004,0.501-0.012c0.256,0,0.405,0,0.448,0c0.043,0,0.083,0,0.123,0
		C41.17,8.438,40.9,9.125,40.757,9.557s-0.215,0.955-0.215,1.57c0,0.141,0.104,0.211,0.314,0.211c0.093,0,0.314-0.139,0.664-0.414
		s0.667-0.688,0.955-1.239c0.287-0.552,0.562-1.296,0.827-2.235H44.627z M40.309,7.671c-0.202,0.522-0.382,1.032-0.542,1.53
		c-0.159,0.498-0.27,0.897-0.332,1.196c-0.062,0.301-0.093,0.512-0.093,0.637c0,0.078,0.02,0.16,0.059,0.245
		c0.039,0.086,0.103,0.151,0.192,0.198c0.089,0.047,0.192,0.07,0.309,0.07c0.046,0,0.101,0,0.163,0s0.109,0,0.14,0
		c-0.031-0.031-0.124-0.09-0.279-0.176s-0.232-0.188-0.232-0.306c0-0.032,0.039-0.196,0.116-0.493
		c0.078-0.298,0.2-0.717,0.367-1.258c0.167-0.539,0.335-1.088,0.506-1.644H40.309z M43.417,7.671
		c-0.124,0.366-0.271,0.847-0.442,1.446s-0.341,1.195-0.512,1.79c-0.17,0.595-0.355,1.184-0.553,1.767s-0.34,0.978-0.425,1.183
		c-0.085,0.207-0.287,0.473-0.605,0.799c0.209-0.077,0.367-0.149,0.472-0.215c0.104-0.066,0.268-0.3,0.489-0.699
		c0.221-0.401,0.461-0.945,0.722-1.633c0.26-0.688,0.465-1.322,0.617-1.9c0.151-0.58,0.355-1.405,0.611-2.478
		c-0.078-0.016-0.151-0.027-0.221-0.035S43.447,7.679,43.417,7.671z"/>
	<path fill="#FFFFFF" d="M45.128,10.489c0.147-0.109,0.322-0.164,0.523-0.164c0.171,0,0.32,0.037,0.448,0.111
		c0.128,0.073,0.206,0.168,0.233,0.284s0.041,0.21,0.041,0.279c0,0.278-0.104,0.495-0.314,0.65s-0.452,0.304-0.728,0.448
		c-0.275,0.143-0.433,0.211-0.472,0.203c0.085-0.053,0.185-0.135,0.297-0.244s0.181-0.197,0.204-0.266
		c-0.132,0-0.234-0.033-0.308-0.1c-0.074-0.066-0.132-0.152-0.175-0.258s-0.064-0.213-0.064-0.322
		C44.813,10.861,44.918,10.654,45.128,10.489z M45.268,10.592c-0.093,0-0.167,0.049-0.221,0.146
		c-0.055,0.097-0.082,0.211-0.082,0.343c0,0.163,0.037,0.261,0.11,0.291c0.074,0.031,0.126,0.047,0.157,0.047
		c0.117,0,0.225-0.047,0.326-0.14c0.101-0.094,0.151-0.201,0.151-0.326c0-0.031-0.023-0.1-0.07-0.203
		C45.593,10.645,45.469,10.592,45.268,10.592z"/>
	<path fill="#FFFFFF" d="M49.97,9.318c0-0.747,0.138-1.533,0.413-2.357s0.644-1.562,1.106-2.211
		c0.461-0.649,1.007-1.171,1.635-1.564c0.629-0.393,1.315-0.589,2.061-0.589c0.093,0,0.227,0,0.401,0c0.175,0,0.301,0,0.378,0
		c0.264,0,0.493,0.031,0.687,0.093c0.194,0.062,0.353,0.153,0.477,0.273c0.124,0.121,0.187,0.212,0.187,0.274
		c0,0.085-0.128,0.246-0.384,0.483c-0.256,0.237-0.388,0.363-0.396,0.378c0.031-0.079,0.059-0.164,0.082-0.255
		c0.023-0.091,0.035-0.188,0.035-0.29c0-0.126-0.018-0.239-0.053-0.337c-0.035-0.099-0.103-0.184-0.204-0.255
		C56.295,2.89,56.163,2.834,56,2.795c-0.163-0.04-0.322-0.059-0.478-0.059c-0.264,0-0.504,0.031-0.722,0.093
		c-0.217,0.062-0.619,0.403-1.205,1.022c-0.586,0.62-1.114,1.574-1.583,2.863c-0.47,1.289-0.704,2.682-0.704,4.178
		c0,0.264,0.138,0.461,0.413,0.59s0.564,0.192,0.867,0.192h0.209c0.318,0,0.6-0.093,0.844-0.28c0.245-0.186,0.502-0.451,0.774-0.793
		c0.45-0.623,0.675-1.381,0.675-2.275c0-0.21-0.016-0.418-0.046-0.624c-0.031-0.206-0.078-0.396-0.14-0.571
		c-0.062-0.175-0.165-0.3-0.309-0.374s-0.309-0.111-0.495-0.111c-0.078,0-0.196,0.01-0.355,0.029
		c-0.159,0.02-0.39,0.144-0.693,0.373c-0.302,0.229-0.5,0.502-0.593,0.821l-0.117-0.128c0.279-0.388,0.59-0.704,0.931-0.948
		c0.342-0.245,0.714-0.367,1.118-0.367c0.093,0,0.287,0.025,0.582,0.076c0.295,0.05,0.613,0.186,0.955,0.407
		c0.341,0.221,0.547,0.462,0.617,0.722c0.07,0.26,0.112,0.456,0.128,0.588s0.023,0.256,0.023,0.372c0,0.535-0.138,1.033-0.413,1.49
		c-0.276,0.458-0.701,0.875-1.275,1.252c-0.574,0.376-1.234,0.564-1.979,0.564c-0.691,0-1.279-0.166-1.764-0.496
		c-0.485-0.331-0.823-0.646-1.013-0.945C50.065,10.156,49.97,9.777,49.97,9.318z M50.541,10.581
		c-0.023-0.139-0.035-0.283-0.035-0.43c0-0.117,0.007-0.266,0.023-0.449c0.016-0.182,0.058-0.622,0.128-1.32
		c0.07-0.699,0.292-1.498,0.669-2.398s0.96-1.692,1.752-2.375c-0.132,0-0.221,0.004-0.268,0.011
		c-0.047,0.008-0.151,0.078-0.314,0.209c-0.163,0.132-0.312,0.274-0.448,0.425s-0.337,0.442-0.605,0.873
		c-0.268,0.431-0.512,0.852-0.733,1.263c-0.221,0.412-0.388,0.838-0.5,1.28c-0.113,0.442-0.169,0.998-0.169,1.665
		c0,0.163,0.044,0.363,0.134,0.6C50.263,10.172,50.385,10.387,50.541,10.581z M54.836,6.798c0.155,0.233,0.271,0.491,0.349,0.774
		s0.116,0.564,0.116,0.844c0,0.535-0.116,1.062-0.349,1.582c-0.233,0.521-0.528,0.951-0.885,1.293c0.147,0,0.272-0.039,0.373-0.117
		c0.101-0.077,0.254-0.215,0.46-0.412c0.206-0.199,0.405-0.528,0.6-0.99c0.194-0.461,0.291-0.926,0.291-1.391
		c0-0.357-0.074-0.71-0.221-1.06C55.422,6.973,55.177,6.798,54.836,6.798z"/>
	<path fill="#FFFFFF" d="M62.401,2.049c0.35-0.729,0.865-1.253,1.549-1.571C64.632,0.159,65.428,0,66.336,0
		c0.411,0,0.745,0.016,1.001,0.047c0.256,0.031,0.561,0.07,0.914,0.116c0.353,0.046,0.905,0.309,1.658,0.786
		c0.753,0.478,1.236,0.763,1.449,0.855c0.214,0.093,0.383,0.14,0.507,0.14c0.264,0,0.523-0.121,0.779-0.361
		c0.031,0.186-0.083,0.399-0.343,0.64c-0.261,0.24-0.497,0.615-0.71,1.123c-0.214,0.508-0.554,1.616-1.019,3.323
		c-0.466,1.708-0.926,3.04-1.38,3.999s-1.107,1.758-1.961,2.398c-0.854,0.64-1.442,1.07-1.764,1.291
		c-0.322,0.222-0.708,0.432-1.158,0.629c-0.45,0.198-0.9,0.297-1.351,0.297c-0.256,0-0.496-0.033-0.722-0.099
		c-0.226-0.066-0.44-0.161-0.646-0.285c-0.206-0.124-0.348-0.263-0.426-0.413c-0.077-0.152-0.115-0.32-0.115-0.507
		c0-0.194,0.098-0.529,0.297-1.007c0.197-0.477,0.58-0.902,1.146-1.274s1.385-0.718,2.455-1.036c1.071-0.318,1.716-0.52,1.933-0.605
		l-0.012,0.129c-0.792,0.225-1.489,0.457-2.095,0.697c-0.605,0.241-1.166,0.552-1.682,0.932c-0.518,0.381-0.872,0.747-1.066,1.1
		c-0.193,0.354-0.315,0.627-0.366,0.821c-0.05,0.194-0.075,0.376-0.075,0.547c0,0.295,0.091,0.485,0.273,0.57
		c0.182,0.085,0.368,0.153,0.559,0.204c0.189,0.051,0.379,0.075,0.564,0.075c0.256,0,0.508-0.052,0.757-0.157
		c0.248-0.104,0.667-0.449,1.257-1.035s1.154-1.348,1.693-2.282c0.54-0.935,1.091-2.144,1.653-3.626
		c0.562-1.482,0.943-2.452,1.141-2.91c0.198-0.458,0.547-0.962,1.048-1.513c0.5-0.551,0.918-1.005,1.251-1.362
		c-0.287,0.047-0.524,0.08-0.711,0.099s-0.392,0.029-0.617,0.029c-0.265,0-0.532-0.021-0.805-0.064
		c-0.271-0.042-0.541-0.106-0.81-0.192c-0.268-0.085-0.856-0.339-1.766-0.762s-1.601-0.635-2.074-0.635
		c-0.202,0-0.395,0.021-0.577,0.064c-0.183,0.042-0.487,0.168-0.915,0.378s-0.798,0.605-1.113,1.188
		c-0.314,0.582-0.471,1.253-0.471,2.014c0,0.644,0.199,1.195,0.6,1.653c0.401,0.458,0.841,0.759,1.319,0.902
		s0.866,0.215,1.161,0.215c0.242,0,0.471-0.025,0.689-0.076c0.217-0.05,0.451-0.126,0.699-0.227c0.031,0.008,0.047,0.054,0.047,0.14
		c-0.496,0.194-0.978,0.291-1.443,0.291c-0.342,0-0.666-0.052-0.972-0.157c-0.307-0.104-0.653-0.273-1.042-0.506
		s-0.687-0.543-0.896-0.931c-0.209-0.388-0.314-0.815-0.314-1.28c0-0.365,0.053-0.735,0.158-1.112
		C62.034,2.9,62.192,2.491,62.401,2.049z M70.841,3.609c-0.45,0.372-0.825,0.894-1.123,1.565c-0.299,0.671-0.701,1.694-1.205,3.067
		c-0.505,1.374-0.979,2.487-1.426,3.341s-1.046,1.672-1.799,2.455c0.163,0,0.305-0.046,0.425-0.139c0.12-0.094,0.32-0.285,0.6-0.576
		s0.527-0.584,0.745-0.879c0.217-0.295,0.419-0.607,0.605-0.938c0.186-0.33,0.448-0.805,0.785-1.426
		c0.338-0.621,0.617-1.338,0.839-2.153c0.221-0.815,0.439-1.601,0.657-2.357C70.161,4.813,70.46,4.16,70.841,3.609z M67.687,0.325
		c-0.257-0.039-0.456-0.065-0.6-0.081c-0.144-0.016-0.285-0.023-0.425-0.023c-0.125,0-0.214,0.006-0.269,0.018
		c-0.054,0.012-0.104,0.041-0.15,0.087c0.527,0,0.979,0.071,1.355,0.214c0.377,0.143,0.939,0.389,1.688,0.739
		c0.748,0.351,1.328,0.572,1.739,0.665c-0.559-0.455-1.094-0.817-1.605-1.087C68.908,0.587,68.33,0.41,67.687,0.325z"/>
	<path fill="#FFFFFF" d="M74.52,7.52h1.176c-0.039,0.358-0.185,1.014-0.437,1.967c-0.252,0.954-0.387,1.474-0.401,1.559
		c-0.039,0.164,0.038,0.246,0.232,0.246c0.101,0,0.208-0.035,0.32-0.105c0.112-0.069,0.205-0.146,0.279-0.232
		c0.073-0.086,0.142-0.182,0.204-0.291h0.081c-0.155,0.291-0.365,0.535-0.629,0.735s-0.496,0.31-0.698,0.329
		s-0.356,0.029-0.466,0.029c-0.186,0-0.341-0.035-0.465-0.105c-0.125-0.069-0.187-0.191-0.187-0.362v-0.152
		c0-0.195,0.029-0.409,0.087-0.644c0.059-0.234,0.126-0.465,0.204-0.691L73.414,10.5c-0.257,0.396-0.526,0.704-0.81,0.926
		s-0.622,0.331-1.019,0.331c-0.163,0-0.314-0.032-0.454-0.099s-0.229-0.155-0.268-0.269c-0.038-0.113-0.058-0.228-0.058-0.344
		c0-0.109,0.02-0.24,0.058-0.392c0.039-0.151,0.132-0.482,0.279-0.992c0.147-0.509,0.361-1.235,0.641-2.177h1.176
		c-0.14,0.582-0.267,1.092-0.379,1.531c-0.112,0.438-0.209,0.811-0.291,1.117c-0.081,0.307-0.132,0.506-0.151,0.6
		c-0.019,0.093-0.028,0.158-0.028,0.197c0,0.055,0.024,0.117,0.075,0.187s0.126,0.104,0.228,0.104c0.054,0,0.217-0.096,0.488-0.286
		s0.57-0.667,0.896-1.431C74.124,8.586,74.364,7.925,74.52,7.52z M71.857,7.706c-0.139,0.389-0.282,0.828-0.433,1.314
		s-0.258,0.875-0.323,1.167s-0.105,0.481-0.121,0.566s-0.022,0.175-0.022,0.269c0,0.117,0.019,0.214,0.057,0.291
		c0.039,0.078,0.115,0.148,0.23,0.211s0.223,0.094,0.322,0.094c0.123,0,0.257-0.039,0.403-0.117c-0.187,0-0.338-0.043-0.454-0.128
		c-0.116-0.086-0.175-0.206-0.175-0.362c0-0.031,0.037-0.202,0.11-0.514c0.074-0.312,0.2-0.771,0.379-1.378
		c0.178-0.606,0.317-1.089,0.419-1.448h-0.173C71.961,7.671,71.888,7.683,71.857,7.706z M74.601,7.636
		c-0.333,0.924-0.578,1.679-0.732,2.267c-0.156,0.587-0.233,1.01-0.233,1.268c0,0.149,0.059,0.261,0.175,0.336
		c0.116,0.074,0.26,0.111,0.431,0.111c0.108,0,0.209-0.027,0.303-0.082c-0.132-0.016-0.233-0.08-0.303-0.192
		c-0.07-0.112-0.098-0.239-0.082-0.38c0-0.475,0.1-1.014,0.297-1.617c0.198-0.603,0.391-1.177,0.576-1.722c-0.101,0-0.188,0-0.262,0
		C74.696,7.625,74.64,7.628,74.601,7.636z"/>
	<path fill="#FFFFFF" d="M80.025,7.578c0.14-0.016,0.236-0.023,0.291-0.023c0.264,0,0.469,0.082,0.616,0.245
		c0.147,0.163,0.222,0.361,0.222,0.594c0,0.217-0.066,0.502-0.198,0.855s-0.211,0.574-0.238,0.663s-0.099,0.257-0.216,0.501
		c-0.116,0.244-0.174,0.421-0.174,0.529c0,0.117,0.032,0.209,0.099,0.279c0.065,0.07,0.122,0.105,0.169,0.105
		c0.085,0,0.219-0.1,0.401-0.297c0.183-0.198,0.316-0.312,0.401-0.344c-0.132,0.45-0.39,0.747-0.773,0.891
		c-0.385,0.144-0.67,0.215-0.856,0.215c-0.155,0-0.304-0.031-0.447-0.093c-0.145-0.062-0.249-0.151-0.314-0.268
		c-0.066-0.116-0.1-0.261-0.1-0.431c0-0.102,0.008-0.177,0.024-0.227c0.016-0.051,0.037-0.125,0.064-0.222s0.149-0.399,0.366-0.908
		s0.325-0.979,0.325-1.414c0-0.093-0.059-0.14-0.175-0.14c-0.211,0-0.456,0.188-0.736,0.566c-0.28,0.377-0.553,0.819-0.817,1.325
		s-0.514,1.086-0.747,1.739c-0.07-0.008-0.21,0.002-0.42,0.029c-0.211,0.027-0.347,0.041-0.409,0.041
		c-0.171,0-0.308-0.035-0.408-0.104c0.147-0.388,0.364-1.129,0.651-2.224c0.287-1.094,0.446-1.684,0.478-1.769
		c0.069-0.023,0.167-0.039,0.291-0.046s0.198-0.012,0.221-0.012c0.132,0,0.26,0.004,0.385,0.012
		c0.124,0.008,0.248,0.016,0.372,0.023c0,0.171-0.081,0.512-0.244,1.025c-0.163,0.512-0.245,0.861-0.245,1.047
		c0.381-0.698,0.703-1.212,0.967-1.542C79.113,7.871,79.505,7.664,80.025,7.578z M77.173,7.892c-0.124,0.613-0.242,1.134-0.354,1.56
		c-0.112,0.428-0.305,1.103-0.576,2.025h0.314c0.038-0.154,0.207-0.677,0.506-1.565c0.299-0.888,0.448-1.581,0.448-2.078
		c-0.085-0.023-0.147-0.035-0.187-0.035C77.278,7.799,77.228,7.83,77.173,7.892z M79.571,7.962c0.016,0.023,0.056,0.047,0.122,0.07
		C79.759,8.055,79.8,8.1,79.815,8.166s0.023,0.153,0.023,0.262c0,0.256-0.12,0.719-0.361,1.391c-0.24,0.672-0.372,1.08-0.396,1.229
		c-0.023,0.139,0.021,0.26,0.134,0.36s0.19,0.165,0.233,0.192c0.042,0.027,0.095,0.041,0.157,0.041c0.062,0,0.124-0.023,0.186-0.07
		c-0.031-0.031-0.081-0.082-0.151-0.151c-0.069-0.069-0.104-0.144-0.104-0.222c0.031-0.287,0.157-0.693,0.378-1.222
		c0.222-0.528,0.332-0.997,0.332-1.409V8.172c-0.008-0.093-0.048-0.161-0.12-0.204c-0.072-0.042-0.161-0.064-0.266-0.064
		C79.764,7.904,79.668,7.923,79.571,7.962z"/>
	<path fill="#FFFFFF" d="M82.573,7.869c0.226-0.14,0.466-0.247,0.722-0.32s0.52-0.11,0.792-0.11c0.341,0,0.646,0.074,0.913,0.221
		c0.269,0.147,0.444,0.328,0.53,0.541c0.085,0.214,0.128,0.37,0.128,0.472c0,0.14-0.037,0.273-0.11,0.401
		c-0.074,0.128-0.187,0.255-0.338,0.378c-0.151,0.125-0.35,0.212-0.594,0.262C84.372,9.764,84.11,9.79,83.83,9.79
		c-0.178,0-0.353-0.004-0.523-0.012s-0.338-0.016-0.5-0.023c-0.14,0.141-0.21,0.311-0.21,0.513c0,0.194,0.059,0.394,0.175,0.599
		c0.116,0.207,0.26,0.354,0.431,0.443c0.171,0.089,0.368,0.133,0.594,0.133c0.155,0,0.327-0.026,0.518-0.081
		c0.19-0.054,0.361-0.147,0.513-0.279s0.39-0.368,0.716-0.71c-0.086,0.256-0.237,0.488-0.454,0.698
		c-0.218,0.21-0.503,0.39-0.855,0.542c-0.354,0.15-0.712,0.227-1.077,0.227c-0.256,0-0.499-0.045-0.728-0.134
		s-0.485-0.266-0.769-0.53c-0.283-0.264-0.425-0.608-0.425-1.035c0-0.094,0.018-0.275,0.053-0.547s0.149-0.561,0.344-0.867
		C81.824,8.418,82.139,8.133,82.573,7.869z M82.713,8.021c-0.279,0.085-0.52,0.254-0.722,0.506
		c-0.202,0.252-0.354,0.528-0.454,0.826c-0.101,0.299-0.151,0.554-0.151,0.763c0,0.318,0.094,0.594,0.279,0.826
		c0.187,0.232,0.385,0.395,0.594,0.483c0.21,0.089,0.435,0.134,0.676,0.134c-0.272-0.109-0.483-0.215-0.635-0.32
		c-0.151-0.104-0.277-0.27-0.378-0.494c-0.102-0.226-0.151-0.467-0.151-0.723c0-0.372,0.091-0.734,0.273-1.088
		C82.226,8.581,82.449,8.276,82.713,8.021z M83.796,7.776c-0.334,0.179-0.57,0.425-0.71,0.739c-0.14,0.313-0.21,0.642-0.21,0.983
		c0.093,0.086,0.214,0.128,0.361,0.128c0.14,0,0.279-0.038,0.419-0.116s0.303-0.227,0.488-0.448
		c0.187-0.222,0.307-0.525,0.361-0.914c-0.016-0.124-0.072-0.225-0.169-0.303s-0.208-0.116-0.332-0.116
		C83.928,7.729,83.857,7.745,83.796,7.776z M84.681,7.951c0.022,0.085,0.034,0.167,0.034,0.244c0,0.249-0.062,0.478-0.186,0.687
		c-0.125,0.21-0.291,0.424-0.501,0.641l0.279-0.07c0.466-0.186,0.698-0.52,0.698-1c0-0.094-0.006-0.175-0.018-0.245
		c-0.011-0.07-0.042-0.132-0.093-0.186S84.773,7.943,84.681,7.951z"/>
	<path fill="#FFFFFF" d="M94.714,2.957c0.271,0.178,0.497,0.365,0.676,0.559c0.178,0.194,0.312,0.415,0.401,0.664
		c0.089,0.248,0.134,0.512,0.134,0.792c0,0.419-0.104,0.814-0.309,1.187c-0.206,0.373-0.491,0.71-0.855,1.013
		c-0.365,0.303-0.852,0.613-1.461,0.931c-0.609,0.319-1.207,0.637-1.793,0.955c-0.586,0.318-1.072,0.667-1.461,1.048
		c0.264-0.055,0.536-0.082,0.815-0.082c0.496,0,1.1,0.104,1.81,0.309c0.71,0.206,1.131,0.322,1.264,0.35
		c0.132,0.027,0.236,0.041,0.313,0.041c0.124,0,0.247-0.023,0.367-0.07s0.238-0.106,0.354-0.18c0.117-0.074,0.229-0.186,0.338-0.332
		c0.108-0.147,0.194-0.24,0.256-0.279c-0.232,0.434-0.557,0.818-0.972,1.152s-0.79,0.541-1.123,0.623
		c-0.334,0.081-0.586,0.121-0.757,0.121c-0.334,0-0.854-0.133-1.56-0.4c-0.706-0.269-1.145-0.402-1.315-0.402
		c-0.218,0-0.417,0.059-0.6,0.175s-0.352,0.307-0.506,0.57c0.054-0.388,0.195-0.7,0.425-0.937c0.229-0.237,0.683-0.658,1.361-1.264
		S91.971,8.21,92.84,7.45c0.924-0.931,1.386-1.881,1.386-2.852c0-0.101,0-0.202,0-0.303c-0.023-0.147-0.047-0.301-0.07-0.46
		c-0.023-0.159-0.126-0.31-0.309-0.454s-0.413-0.266-0.692-0.367c-0.279-0.101-0.528-0.151-0.745-0.151
		c-0.209,0-0.411,0.037-0.605,0.11c-0.193,0.074-0.415,0.204-0.663,0.39c-0.249,0.186-0.438,0.373-0.57,0.559
		c-0.132,0.187-0.198,0.431-0.198,0.733c0,0.38,0.051,0.693,0.151,0.937c0.101,0.245,0.242,0.392,0.425,0.442
		c0.183,0.051,0.312,0.076,0.391,0.076c0.124,0,0.238-0.02,0.343-0.058c0.104-0.039,0.23-0.097,0.379-0.175
		c-0.008,0.008-0.098,0.188-0.269,0.542s-0.356,0.529-0.559,0.529c-0.334,0-0.568-0.068-0.704-0.204s-0.287-0.355-0.454-0.658
		s-0.25-0.585-0.25-0.85c0-0.396,0.142-0.784,0.425-1.164c0.283-0.38,0.609-0.694,0.978-0.943c0.369-0.248,0.7-0.423,0.995-0.524
		c0.295-0.101,0.594-0.151,0.896-0.151C93.662,2.456,94.194,2.623,94.714,2.957z M89.674,10.756c0.372,0,0.914,0.133,1.624,0.4
		c0.71,0.269,1.255,0.402,1.635,0.402c0.326,0,0.656-0.066,0.99-0.198c-0.155,0.023-0.303,0.035-0.442,0.035
		c-0.373,0-0.906-0.122-1.601-0.366c-0.695-0.245-1.213-0.367-1.555-0.367c-0.162,0-0.281,0.006-0.354,0.018
		C89.896,10.692,89.798,10.717,89.674,10.756z M94.318,3.283c-0.163-0.116-0.273-0.192-0.332-0.227
		c-0.058-0.035-0.13-0.052-0.215-0.052c-0.016,0-0.055,0.008-0.116,0.023c0.022,0.031,0.124,0.14,0.302,0.326
		c0.179,0.187,0.297,0.353,0.355,0.5s0.099,0.293,0.122,0.437s0.035,0.297,0.035,0.46c0,0.566-0.165,1.108-0.495,1.624
		c-0.33,0.516-0.781,1.073-1.355,1.67c0.706-0.341,1.271-0.805,1.693-1.391c0.423-0.585,0.635-1.278,0.635-2.078
		c0-0.287-0.049-0.535-0.146-0.745C94.704,3.62,94.543,3.438,94.318,3.283z"/>
	<path fill="#FFFFFF" d="M96.576,8.684c0-1.436,0.355-2.695,1.065-3.777s1.464-1.729,2.264-1.938
		c0.799-0.209,1.357-0.314,1.676-0.314c0.521,0,0.985,0.101,1.397,0.303c0.411,0.202,0.702,0.57,0.873,1.105
		c0.17,0.536,0.256,1.118,0.256,1.746c0,0.776-0.146,1.521-0.437,2.235c-0.291,0.715-0.677,1.387-1.158,2.02
		s-1.015,1.073-1.601,1.321c-0.586,0.249-1.251,0.372-1.996,0.372c-0.403,0-0.772-0.105-1.106-0.32
		c-0.333-0.213-0.604-0.49-0.814-0.832c-0.209-0.341-0.332-0.626-0.366-0.855C96.594,9.52,96.576,9.165,96.576,8.684z
		 M97.542,11.059c-0.008-0.078-0.062-0.336-0.163-0.775c-0.101-0.438-0.151-0.797-0.151-1.076c0-1.04,0.241-2.091,0.723-3.154
		c0.48-1.063,1.121-1.995,1.92-2.794c-1.04,0.59-1.8,1.269-2.281,2.037c-0.481,0.769-0.722,1.882-0.722,3.341
		c0,0.582,0.049,1.082,0.146,1.502C97.109,10.558,97.286,10.865,97.542,11.059z M101.57,2.782c-0.691,0.093-1.314,0.667-1.869,1.723
		c-0.555,1.056-0.993,2.08-1.315,3.073c-0.321,0.993-0.482,2.107-0.482,3.34c0,0.248,0.104,0.428,0.314,0.535
		c0.209,0.109,0.473,0.164,0.791,0.164c0.233,0,0.464-0.025,0.692-0.076c0.229-0.051,0.42-0.155,0.57-0.314
		c0.151-0.158,0.429-0.602,0.833-1.326c0.403-0.727,0.77-1.564,1.1-2.515c0.33-0.95,0.495-1.957,0.495-3.021
		c0-0.202,0-0.407,0-0.617c-0.023-0.179-0.041-0.336-0.053-0.472s-0.101-0.254-0.268-0.355c-0.167-0.101-0.367-0.151-0.6-0.151
		C101.687,2.771,101.616,2.774,101.57,2.782z M102.815,3.236c0.093,0.512,0.14,1.021,0.14,1.525c0,1.156-0.218,2.268-0.652,3.335
		c-0.435,1.066-1.013,2.074-1.734,3.021c0.668-0.559,1.162-1.112,1.484-1.659s0.615-1.194,0.879-1.943s0.396-1.441,0.396-2.078
		c0-0.45-0.04-0.863-0.122-1.24C103.124,3.82,102.994,3.5,102.815,3.236z"/>
	<path fill="#FFFFFF" d="M108.658,2.666h0.268c-0.303,0.861-0.615,1.832-0.937,2.91c-0.322,1.079-0.639,2.144-0.949,3.195
		c-0.311,1.052-0.624,2.035-0.942,2.95l-1.362,0.035c0.194-0.736,0.429-1.555,0.704-2.455s0.56-1.83,0.851-2.789
		c0.291-0.958,0.514-1.751,0.669-2.38c-0.753,0.311-1.506,0.617-2.258,0.92c0-0.233,0.199-0.392,0.599-0.478
		c0.4-0.085,0.749-0.209,1.048-0.373c0.299-0.163,0.687-0.382,1.164-0.658C107.989,3.269,108.371,2.976,108.658,2.666z
		 M107.297,3.993c-0.389,1.265-0.682,2.208-0.879,2.829c-0.198,0.621-0.421,1.333-0.67,2.136c-0.248,0.803-0.5,1.658-0.756,2.566
		c0.077,0.078,0.166,0.098,0.268,0.059c0.325-0.745,0.634-1.568,0.925-2.469c0.291-0.899,0.561-1.799,0.81-2.7
		c0.248-0.9,0.496-1.796,0.745-2.689c-0.078,0-0.153,0.031-0.228,0.093C107.438,3.88,107.366,3.938,107.297,3.993z"/>
	<path fill="#FFFFFF" d="M116.562,2.663c-0.078,0.217-0.206,0.432-0.385,0.641c-0.179,0.21-0.376,0.374-0.594,0.49
		c-0.209,0.14-0.438,0.237-0.687,0.292c-0.248,0.054-0.539,0.082-0.873,0.082c-0.179,0-0.442-0.012-0.791-0.035
		c-0.35-0.023-0.609-0.035-0.78-0.035c-0.232,0.667-0.462,1.334-0.687,2.002c0.193-0.023,0.378-0.046,0.553-0.07
		s0.362-0.054,0.564-0.093c0.202-0.039,0.382-0.068,0.541-0.087c0.159-0.02,0.328-0.029,0.507-0.029c0.318,0,0.611,0.046,0.879,0.14
		s0.52,0.26,0.757,0.5c0.236,0.241,0.401,0.508,0.494,0.803c0.094,0.295,0.14,0.652,0.14,1.071c0,0.559-0.12,1.075-0.36,1.549
		c-0.241,0.473-0.586,0.854-1.036,1.141s-0.92,0.508-1.408,0.663c-0.489,0.155-0.975,0.233-1.455,0.233
		c-0.419,0-0.798-0.061-1.136-0.182c-0.337-0.119-0.655-0.341-0.954-0.663c-0.299-0.321-0.448-0.731-0.448-1.228
		c0-0.179,0.035-0.346,0.104-0.501h0.463h0.185c0.047,0,0.103-0.004,0.168-0.012c0.065-0.007,0.128-0.013,0.186-0.017
		s0.206-0.037,0.445-0.1s0.401-0.094,0.486-0.094c-0.214,0.172-0.403,0.367-0.568,0.588c-0.164,0.222-0.246,0.434-0.246,0.635
		c0,0.535,0.161,0.906,0.482,1.111c0.322,0.206,0.607,0.309,0.855,0.309c0.179,0,0.348-0.029,0.507-0.087s0.438-0.234,0.838-0.53
		c0.399-0.294,0.726-0.82,0.978-1.576c0.253-0.757,0.379-1.628,0.379-2.614c0-0.24-0.096-0.45-0.285-0.628
		c-0.19-0.178-0.381-0.283-0.57-0.314c-0.19-0.031-0.348-0.046-0.472-0.046c-0.326,0-0.643,0.058-0.948,0.174
		c-0.307,0.117-0.639,0.28-0.996,0.489c0.45-1.273,0.9-2.545,1.351-3.818c0.582,0.226,1.191,0.338,1.827,0.338
		C115.316,3.155,115.98,2.991,116.562,2.663z M109.659,10.477c0.047,0.178,0.13,0.325,0.251,0.441
		c0.12,0.117,0.266,0.183,0.437,0.198c-0.109-0.147-0.181-0.318-0.216-0.513c-0.035-0.193-0.053-0.422-0.053-0.687
		c0-0.077,0-0.153,0-0.227s0-0.149,0-0.228c-0.182-0.023-0.311,0.008-0.387,0.094c-0.075,0.085-0.113,0.213-0.113,0.384
		c0,0.085,0.012,0.183,0.035,0.291S109.651,10.422,109.659,10.477z M112.837,3.085l-0.093,0.323
		c0.256,0.067,0.508,0.115,0.757,0.145c0.248,0.03,0.535,0.044,0.861,0.044c0.411,0,0.718-0.022,0.92-0.066
		c0.201-0.044,0.356-0.169,0.465-0.376c-0.147,0.05-0.311,0.086-0.488,0.107c-0.179,0.021-0.357,0.032-0.536,0.032
		c-0.271,0-0.576-0.022-0.913-0.068C113.472,3.182,113.147,3.134,112.837,3.085z M114.351,6.135
		c0.085,0.116,0.171,0.243,0.256,0.378c0.086,0.136,0.153,0.32,0.204,0.553c0.05,0.233,0.075,0.504,0.075,0.815
		c0,0.605-0.12,1.179-0.36,1.723c-0.241,0.543-0.578,1.074-1.013,1.594c0.132-0.023,0.262-0.077,0.39-0.162
		c0.128-0.086,0.25-0.168,0.367-0.245c0.325-0.458,0.591-0.937,0.797-1.438s0.309-0.991,0.309-1.472
		c0-0.326-0.059-0.652-0.175-0.978c-0.085-0.194-0.203-0.371-0.354-0.53C114.694,6.214,114.529,6.135,114.351,6.135z"/>
</g>
</svg>
