<?xml version="1.0" encoding="utf-8"?>
<!-- Generator: Adobe Illustrator 16.0.0, SVG Export Plug-In . SVG Version: 6.00 Build 0)  -->
<!DOCTYPE svg PUBLIC "-//W3C//DTD SVG 1.1//EN" "http://www.w3.org/Graphics/SVG/1.1/DTD/svg11.dtd">
<svg version="1.1" id="Layer_1" xmlns="http://www.w3.org/2000/svg" xmlns:xlink="http://www.w3.org/1999/xlink" x="0px" y="0px"
	 width="474.852px" height="148.331px" viewBox="0 0 474.852 148.331" enable-background="new 0 0 474.852 148.331"
	 xml:space="preserve">
<path fill="none" stroke="#FFFFFF" stroke-width="2" stroke-miterlimit="10" d="M0.79,98.175
	c0.189-0.244,19.371-24.595,58.046-48.608C94.517,27.41,154.578,1,238.081,1c83.5,0,143.206,25.557,178.589,46.996
	c38.355,23.24,57.212,46.806,57.398,47.042"/>
<path fill="none" stroke="#FFFFFF" stroke-width="2" stroke-miterlimit="10" d="M4.285,102.181
	c0.181-0.24,18.487-24.311,56.299-48.046C95.466,32.236,154.577,6.133,238.081,6.133c83.501,0,142.256,25.25,176.841,46.431
	c37.492,22.962,55.474,46.248,55.65,46.481"/>
<path fill="none" stroke="#FFFFFF" stroke-width="2" stroke-miterlimit="10" d="M43.719,144.415
	c0.156-0.201,16.03-20.353,48.035-40.225C121.281,85.855,170.984,64,240.085,64c69.099,0,118.509,21.149,147.788,38.892
	c31.741,19.231,47.346,38.733,47.5,38.928"/>
<path fill="none" stroke="#FFFFFF" stroke-width="2" stroke-miterlimit="10" d="M46.611,147.73
	c0.149-0.198,15.298-20.117,46.589-39.76c28.867-18.122,77.783-39.723,146.885-39.723c69.1,0,117.722,20.896,146.343,38.423
	c31.025,19.002,45.905,38.272,46.053,38.465"/>
<path fill="#FFFFFF" stroke="#FFFFFF" stroke-miterlimit="10" d="M86.737,73.5c-3.202-4.743-6.299-8.057-9.346-9.892
	c-5.189-3.104-10.938-2.784-16.903,1.127c-1,0.657-2.446,1.729-4.316,3.242c-1.871,1.513-3.286,2.626-4.262,3.318
	c-4.309,3.05-7.609,5.383-9.978,6.874c0.332,0.368,0.662,0.736,0.993,1.104c2.266-1.687,4.22-1.901,5.824-0.688
	c0.362,0.271,0.977,0.907,1.847,1.906c1.012,1.164,2.606,2.915,4.78,5.254c2.175,2.34,3.764,4.095,4.775,5.259
	c0.997,1.15,2.412,2.862,4.249,5.134c1.835,2.271,3.256,3.979,4.254,5.128c1.336,1.537,2.129,2.643,2.38,3.316
	c0.552,1.532,0.025,2.905-1.577,4.158c0.325,0.361,0.649,0.721,0.974,1.082c3.169-2.68,5.89-4.771,8.103-6.336
	c0.835-0.592,2.159-1.402,3.98-2.406c1.821-1.003,3.16-1.77,4.011-2.328C94.46,93.572,94.648,85.38,86.737,73.5z M83.997,98.518
	c-1.244,0.829-2.699,1.461-4.376,1.904c-1.968,0.525-3.263,0.435-3.88-0.312c-1.194-1.444-2.901-3.606-5.113-6.49
	c-2.212-2.883-3.91-5.05-5.104-6.496c-1.143-1.386-2.948-3.473-5.424-6.253c-2.478-2.78-4.29-4.86-5.436-6.245
	c-0.615-0.744-0.312-1.977,0.944-3.688c1.096-1.451,2.373-2.664,3.818-3.63c4.188-2.792,8.837-2.552,13.729,0.687
	c3.067,2.019,5.872,4.887,8.471,8.555c2.669,3.765,4.445,7.266,5.392,10.482C88.587,92.353,87.61,96.112,83.997,98.518z"/>
<path fill="#FFFFFF" stroke="#FFFFFF" stroke-miterlimit="10" d="M127.071,73.953c-1.067-0.207-1.755-0.642-2.061-1.314
	c-2.901-6.13-4.674-9.987-5.329-11.566c-0.31-0.691-0.858-1.829-1.645-3.415c-0.995-2.001-2.339-4.547-4.043-7.629
	c-1.704-3.082-2.955-5.413-3.746-6.996c-0.337-0.679-0.198-1.477,0.428-2.393c0.625-0.914,1.515-1.615,2.657-2.094
	c-0.208-0.438-0.417-0.877-0.627-1.315c-5.129,2.148-10.208,4.43-15.235,6.846c0.236,0.425,0.473,0.853,0.707,1.279
	c1.044-0.48,2.169-0.663,3.366-0.546c1.197,0.116,1.97,0.483,2.326,1.089c2.622,4.605,5.233,9.213,7.837,13.827
	c-4.628,2.132-9.21,4.385-13.737,6.759c-2.616-4.608-5.221-9.22-7.818-13.835c-0.336-0.618-0.22-1.421,0.355-2.41
	c0.576-0.988,1.375-1.753,2.392-2.286c-0.245-0.422-0.489-0.845-0.735-1.266c-4.983,2.509-9.911,5.151-14.773,7.928
	c0.271,0.41,0.541,0.818,0.812,1.225c1.084-0.619,2.216-0.914,3.391-0.885c1.173,0.029,1.962,0.369,2.373,1.013
	c-0.074-0.116,0.752,1.302,2.486,4.248c2.596,4.411,4.624,7.743,6.067,10.002c1.434,2.242,3.618,5.487,6.535,9.743
	c1.942,2.831,2.875,4.19,2.801,4.074c0.41,0.645,0.406,1.427-0.003,2.347c-0.409,0.921-1.075,1.644-2.011,2.177
	c0.268,0.4,0.531,0.801,0.796,1.199c4.143-2.364,8.339-4.615,12.584-6.752c-0.24-0.414-0.479-0.828-0.719-1.241
	c-0.894,0.428-1.882,0.571-2.974,0.433c-1.093-0.139-1.837-0.496-2.223-1.086c-2.856-4.471-5.722-8.937-8.593-13.397
	c4.501-2.361,9.058-4.602,13.662-6.723c2.33,4.728,4.669,9.453,7.015,14.174c0.305,0.631,0.205,1.404-0.285,2.322
	c-0.492,0.917-1.174,1.595-2.055,2.04c0.23,0.419,0.461,0.837,0.693,1.255c4.279-2.058,8.606-4.001,12.977-5.831
	c-0.205-0.43-0.41-0.859-0.617-1.289C129.145,74.062,128.137,74.16,127.071,73.953z"/>
<path fill="#FFFFFF" stroke="#FFFFFF" stroke-miterlimit="10" d="M154.181,63.887c-1.025-0.317-1.666-0.816-1.913-1.509
	c-1.371-3.835-2.742-7.671-4.113-11.506c1.353-7.669,3.024-15.362,5.014-23.062c0.546-2.156,1.801-3.502,3.73-4.009
	c-0.135-0.464-0.269-0.927-0.402-1.392c-4.891,1.284-9.755,2.679-14.588,4.186c0.16,0.457,0.319,0.914,0.478,1.37
	c0.967-0.301,1.998-0.375,3.083-0.217c1.086,0.156,1.721,0.524,1.908,1.093c0.061,0.183,0.064,0.395,0.011,0.632
	c-1.356,6.121-2.515,12.23-3.48,18.324c0.249,0.672,0.498,1.343,0.746,2.016c-0.167,0.054-0.333,0.109-0.499,0.165
	c-0.25-0.67-0.501-1.342-0.751-2.013c-4.801-4.186-9.772-8.267-14.908-12.235c-0.2-0.154-0.336-0.321-0.41-0.5
	c-0.23-0.555,0.023-1.216,0.77-1.98c0.747-0.763,1.604-1.315,2.563-1.651c-0.179-0.451-0.356-0.901-0.536-1.351
	c-4.783,1.678-9.532,3.467-14.242,5.367c0.202,0.441,0.405,0.883,0.607,1.325c1.858-0.75,3.739-0.444,5.602,0.914
	c6.676,4.827,13.089,9.844,19.229,15.033c1.466,3.803,2.936,7.606,4.402,11.41c0.265,0.687,0.102,1.454-0.478,2.299
	c-0.582,0.849-1.356,1.444-2.332,1.795c0.176,0.44,0.355,0.88,0.535,1.32c4.449-1.597,8.933-3.082,13.449-4.452
	c-0.152-0.449-0.304-0.898-0.455-1.346C156.209,64.21,155.206,64.203,154.181,63.887z"/>
<path fill="#FFFFFF" stroke="#FFFFFF" stroke-miterlimit="10" d="M198.305,54.67c-0.993,0.147-1.942-0.027-2.851-0.526
	c-0.875-0.447-1.431-1.02-1.661-1.726c-3.705-10.764-7.661-21.47-11.866-32.109c-0.513-1.337-1.575-2.339-3.196-2.993
	c-1.73-0.709-3.718-0.839-5.939-0.376c-2.22,0.463-3.977,1.375-5.251,2.711c-1.169,1.235-1.708,2.573-1.635,4.001
	c0.698,11.372,1.653,22.705,2.864,33.992c0.092,0.734-0.172,1.478-0.78,2.234c-0.619,0.819-1.41,1.358-2.385,1.621
	c0.135,0.453,0.271,0.907,0.407,1.361c4.55-1.23,9.127-2.346,13.728-3.348c-0.109-0.46-0.216-0.92-0.325-1.38
	c-2.973,0.649-4.757-0.179-5.369-2.555c-0.038-0.15-0.075-0.409-0.113-0.776c-0.238-2.46-0.468-4.924-0.687-7.388
	c4.022-0.926,8.061-1.77,12.112-2.529c0.869,2.328,1.726,4.661,2.573,6.996c0.059,0.165,0.123,0.418,0.187,0.759
	c0.461,2.409-0.808,3.875-3.79,4.467c0.098,0.462,0.197,0.924,0.295,1.386c4.614-0.921,9.247-1.729,13.894-2.422
	C198.447,55.604,198.376,55.138,198.305,54.67z M173.114,45.811c-0.565-8.342-0.989-16.708-1.27-25.09
	c-0.038-0.723,0.456-1.195,1.48-1.408c0.99-0.208,1.626,0.029,1.901,0.701c3.329,7.748,6.517,15.535,9.571,23.358
	C180.888,44.109,176.992,44.921,173.114,45.811z"/>
<path fill="#FFFFFF" stroke="#FFFFFF" stroke-miterlimit="10" d="M226.813,13.164c1.193-0.055,2.284,0.201,3.265,0.765
	c0.979,0.563,1.47,1.215,1.476,1.948c0.074,7.548,0.151,15.097,0.225,22.646c0.003,0.386,0.232,1.576,0.668,3.572
	c-0.153,0.004-0.309,0.009-0.463,0.013c-7.073-8.527-14.882-16.787-23.402-24.705c-0.206-0.192-0.318-0.384-0.336-0.576
	c-0.087-0.901,0.982-1.723,3.233-2.435c-0.392-0.506-0.782-1.013-1.176-1.518c-4.617,0.438-9.226,0.97-13.826,1.597
	c0.065,0.48,0.131,0.956,0.194,1.433c1.188-0.161,2.307-0.006,3.346,0.464c1.04,0.471,1.6,1.074,1.687,1.802
	c1.292,10.855,2.584,21.71,3.876,32.566c0.087,0.727-0.257,1.442-1.02,2.151c-0.763,0.708-1.651,1.131-2.673,1.271
	c0.065,0.466,0.126,0.936,0.19,1.404c4.655-0.636,9.321-1.157,13.995-1.564c-0.036-0.471-0.073-0.942-0.108-1.413
	c-1.027,0.09-1.981-0.127-2.875-0.651c-0.895-0.523-1.378-1.147-1.447-1.877c-0.704-7.506-1.407-15.013-2.11-22.521
	c-0.034-0.363-0.366-1.522-1.014-3.471c0.167-0.018,0.334-0.035,0.501-0.052c8.34,7.923,15.967,16.181,22.862,24.701
	c0.138,0.17,0.208,0.351,0.21,0.544c0.006,0.965-0.966,1.725-2.905,2.306c0.309,0.519,0.617,1.038,0.922,1.558
	c3.941-0.151,7.883-0.22,11.823-0.208c0.018-0.474,0.032-0.947,0.048-1.419c-1.031-0.004-1.953-0.305-2.783-0.908
	c-0.831-0.604-1.243-1.268-1.232-2.002c0.165-10.953,0.33-21.904,0.497-32.857c0.012-0.733,0.503-1.406,1.483-2.012
	c0.984-0.604,2.079-0.908,3.271-0.904c0.019-0.483,0.03-0.966,0.049-1.45c-5.494-0.016-10.994,0.102-16.488,0.353
	C226.788,12.199,226.8,12.681,226.813,13.164z"/>
<path fill="#FFFFFF" stroke="#FFFFFF" stroke-miterlimit="10" d="M276.129,52.665c-0.681-0.67-1.016-1.373-1.004-2.113
	c0.059-11.367-0.14-22.746-0.596-34.129c-0.043-1.426-0.714-2.682-2.027-3.754c-1.397-1.158-3.233-1.83-5.477-1.994
	c-2.247-0.164-4.201,0.229-5.842,1.164c-1.506,0.866-2.457,2.002-2.858,3.396c-3.091,11.124-5.928,22.281-8.504,33.462
	c-0.156,0.73-0.647,1.373-1.469,1.933c-0.851,0.616-1.775,0.916-2.773,0.901c-0.021,0.473-0.042,0.947-0.066,1.419
	c4.678,0.072,9.352,0.26,14.015,0.561c0.05-0.473,0.099-0.944,0.149-1.416c-3.015-0.193-4.421-1.478-4.213-3.932
	c0.015-0.155,0.064-0.414,0.149-0.778c0.588-2.431,1.18-4.862,1.791-7.291c4.091,0.216,8.174,0.516,12.249,0.899
	c0.052,2.477,0.091,4.954,0.117,7.431c0.002,0.175-0.022,0.436-0.074,0.781c-0.361,2.441-2.041,3.502-5.051,3.253
	c-0.06,0.471-0.118,0.942-0.179,1.414c4.655,0.382,9.298,0.878,13.92,1.488c0.09-0.468,0.178-0.937,0.265-1.404
	C277.664,53.824,276.825,53.395,276.129,52.665z M257.805,38.516c2.22-8.175,4.58-16.333,7.083-24.47
	c0.201-0.703,0.821-1.021,1.856-0.945c1.003,0.074,1.523,0.476,1.561,1.197c0.582,8.362,1.021,16.725,1.315,25.084
	C265.691,39.016,261.752,38.728,257.805,38.516z"/>
<path fill="#FFFFFF" stroke="#FFFFFF" stroke-miterlimit="10" d="M324.461,23.505c-1.83-2.27-4.904-3.94-9.178-4.902
	c-4.337-0.975-8.291-0.921-11.769,0.108c-3.659,1.098-5.756,3-6.368,5.617c-0.68,2.889,0.392,6.052,3.026,9.547
	c-5.963,1.393-9.505,5.151-10.802,11.021c-0.737,3.313,0.187,6.427,2.612,9.393c2.517,3.084,5.934,5.063,10.383,6.055
	c5.02,1.12,9.382,0.322,13.307-2.499c1.086,1.974,2.137,3.955,3.149,5.94c1.823,0.525,3.642,1.071,5.452,1.634
	c-5.132-10.463-11.258-20.798-18.374-30.879c-2.155-3.041-2.917-6.008-2.151-8.939c1.3-5.058,5.034-7.039,11.141-5.674
	c3.184,0.715,5.438,2.062,6.739,3.978c1.19,1.75,1.429,3.625,0.762,5.614c-0.54,1.6-1.612,2.188-3.225,1.785
	c-0.293-0.072-0.688-0.221-1.188-0.444c-0.496-0.223-0.896-0.37-1.189-0.44c-0.971-0.235-1.882-0.194-2.733,0.12
	c-0.854,0.314-1.369,0.783-1.557,1.4c-0.192,0.639,0.05,1.239,0.715,1.804c0.667,0.566,1.505,0.971,2.516,1.216
	c2.081,0.504,4.159,0.246,6.275-0.776c1.937-0.949,3.16-2.107,3.647-3.497C326.563,28.094,326.186,25.693,324.461,23.505z
	 M313.15,53.513c-0.978,1.812-2.262,3.23-3.849,4.271c-2.019,1.336-4.179,1.734-6.535,1.208c-3.295-0.734-5.366-2.527-6.265-5.463
	c-0.674-2.157-0.685-4.615,0.014-7.378c1.084-4.275,3.06-7.341,6.019-9.136C306.363,42.448,309.902,47.953,313.15,53.513z"/>
<path fill="#FFFFFF" stroke="#FFFFFF" stroke-miterlimit="10" d="M373.145,42.393c0.478-1.372,0.301-2.778-0.555-4.215
	c-0.901-1.543-2.397-2.761-4.463-3.625c-2.071-0.864-4.067-1.103-5.963-0.727c-1.745,0.351-3.06,1.137-3.948,2.337
	c-6.997,9.617-13.759,19.348-20.29,29.184c-0.415,0.646-1.116,1.104-2.095,1.381c-1.033,0.323-2.014,0.321-2.953-0.004
	c-0.195,0.443-0.39,0.887-0.584,1.331c4.396,1.52,8.75,3.156,13.06,4.905c0.221-0.433,0.438-0.867,0.66-1.3
	c-2.786-1.129-3.647-2.792-2.552-5.06c0.067-0.144,0.21-0.375,0.427-0.693c1.442-2.131,2.896-4.257,4.36-6.379
	c3.792,1.487,7.556,3.056,11.285,4.709c-0.857,2.375-1.727,4.745-2.605,7.112c-0.062,0.166-0.179,0.407-0.355,0.721
	c-1.234,2.209-3.22,2.686-5.979,1.5c-0.229,0.428-0.461,0.86-0.689,1.289c4.277,1.831,8.506,3.778,12.681,5.836
	c0.253-0.417,0.509-0.836,0.763-1.253c-0.895-0.441-1.535-1.118-1.927-2.034c-0.404-0.854-0.466-1.632-0.182-2.333
	C365.447,64.271,369.416,53.375,373.145,42.393z M360.092,62.696c-3.597-1.591-7.228-3.106-10.886-4.542
	c5.089-7.085,10.309-14.106,15.658-21.064c0.449-0.605,1.154-0.714,2.106-0.316c0.924,0.386,1.269,0.933,1.043,1.63
	C365.508,46.546,362.867,54.645,360.092,62.696z"/>
<path fill="#FFFFFF" stroke="#FFFFFF" stroke-miterlimit="10" d="M379.29,87.103c-0.485-0.897-0.544-1.617-0.166-2.16
	c0.128-0.182,0.226-0.299,0.296-0.35c9.683-7.521,19.754-14.73,30.2-21.596c0.691-0.443,1.563-0.688,2.619-0.727
	c1.197-0.019,2.262,0.273,3.182,0.877c0.312-0.396,0.626-0.792,0.94-1.188c-4.595-3.015-9.266-5.894-14.009-8.638
	c-0.288,0.41-0.576,0.821-0.866,1.232c3.091,1.794,3.91,3.69,2.507,5.602c-0.248,0.339-0.498,0.6-0.744,0.779
	c-4.47,3.323-8.866,6.704-13.195,10.141c-4.59,3.635-8.563,7.152-11.987,10.505c-0.094-0.053-0.189-0.107-0.287-0.16
	c0.533-1.34,1.06-2.682,1.58-4.025c1.624-4.585,2.735-8.059,3.411-10.395c1.481-5.031,2.879-10.094,4.19-15.183
	c0.096-0.376,0.228-0.702,0.399-0.972c1.26-1.993,3.483-2.183,6.626-0.488c0.277-0.418,0.554-0.835,0.832-1.254
	c-4.814-2.602-9.695-5.07-14.637-7.403c-0.251,0.431-0.503,0.862-0.754,1.292c0.988,0.467,1.739,1.191,2.244,2.163
	c0.417,0.868,0.56,1.68,0.427,2.435c-2.172,11.502-4.817,22.865-7.93,34.063c-0.053,0.176-0.112,0.314-0.18,0.415
	c-0.364,0.551-1.102,0.825-2.203,0.833s-2.054-0.199-2.866-0.623c-0.266,0.412-0.531,0.824-0.795,1.238
	c4.126,2.162,8.198,4.44,12.206,6.833c0.289-0.399,0.58-0.798,0.871-1.198C380.413,88.681,379.776,87.999,379.29,87.103z"/>
<path fill="#FFFFFF" stroke="#FFFFFF" stroke-miterlimit="10" d="M419.863,64.293c-0.32,0.392-0.64,0.783-0.959,1.176
	c0.988,0.67,1.686,1.528,2.081,2.563c0.396,1.035,0.341,1.849-0.153,2.437c-7.399,8.781-14.8,17.561-22.203,26.342
	c-0.494,0.588-1.294,0.881-2.396,0.891c-1.104,0.008-2.073-0.273-2.926-0.852c-0.312,0.385-0.627,0.769-0.94,1.152
	c3.881,2.625,7.694,5.367,11.434,8.225c0.337-0.368,0.672-0.736,1.009-1.104c-0.823-0.628-1.358-1.429-1.609-2.41
	c-0.253-0.983-0.128-1.764,0.383-2.342c7.622-8.621,15.245-17.24,22.867-25.86c0.513-0.578,1.365-0.816,2.569-0.703
	c1.198,0.114,2.28,0.536,3.234,1.265c0.346-0.375,0.687-0.751,1.029-1.126C428.892,70.594,424.416,67.376,419.863,64.293z"/>
</svg>
